<svg width="161" height="40" viewBox="0 0 161 40" fill="none" xmlns="http://www.w3.org/2000/svg">
<path d="M68.5533 11.55V17.22C67.5733 17.22 66.7833 17.08 66.1833 16.8C65.6033 16.5 65.1433 16.15 64.8033 15.75C64.4833 15.35 64.2633 14.93 64.1433 14.49C64.0233 14.03 63.9533 13.63 63.9333 13.29H62.2533V28.26H64.9233V30H54.5433V28.26H57.2133V13.29H55.5033C55.4833 13.63 55.4133 14.03 55.2933 14.49C55.1933 14.93 54.9733 15.35 54.6333 15.75C54.3133 16.15 53.8533 16.5 53.2533 16.8C52.6533 17.08 51.8733 17.22 50.9133 17.22V11.55H68.5533ZM70.5094 16.77H72.2794L77.0194 16.05V28.47H78.7894V30H70.5094V28.47H72.2794V18.27H70.5094V16.77ZM72.2794 12.09C72.2794 11.25 72.4594 10.63 72.8194 10.23C73.1794 9.81 73.7894 9.6 74.6494 9.6C75.5494 9.6 76.1694 9.81 76.5094 10.23C76.8494 10.63 77.0194 11.25 77.0194 12.09C77.0194 12.95 76.8294 13.58 76.4494 13.98C76.0894 14.36 75.4894 14.55 74.6494 14.55C73.7894 14.55 73.1794 14.36 72.8194 13.98C72.4594 13.58 72.2794 12.95 72.2794 12.09ZM86.8345 16.38C87.2945 16.38 87.7145 16.42 88.0945 16.5C88.4745 16.56 88.8145 16.64 89.1145 16.74L91.1245 16.29V20.91C90.3645 20.91 89.7345 20.8 89.2345 20.58C88.7545 20.34 88.3645 20.06 88.0645 19.74C87.7645 19.4 87.5345 19.05 87.3745 18.69C87.2345 18.31 87.1345 17.99 87.0745 17.73H86.8345C86.6545 17.73 86.4945 17.74 86.3545 17.76C86.2345 17.76 86.1245 17.77 86.0245 17.79C85.9245 17.81 85.8445 17.83 85.7845 17.85C85.7245 17.93 85.6745 18.03 85.6345 18.15C85.5945 18.25 85.5645 18.39 85.5445 18.57C85.5245 18.75 85.5145 18.96 85.5145 19.2C85.5145 19.58 85.5545 19.89 85.6345 20.13C85.7145 20.37 85.8345 20.57 85.9945 20.73C86.1745 20.89 86.4045 21.02 86.6845 21.12C86.9645 21.22 87.3145 21.33 87.7345 21.45C88.2745 21.59 88.8045 21.77 89.3245 21.99C89.8645 22.19 90.3445 22.46 90.7645 22.8C91.1845 23.14 91.5245 23.57 91.7845 24.09C92.0645 24.59 92.2045 25.2 92.2045 25.92C92.2045 26.72 92.0645 27.4 91.7845 27.96C91.5045 28.5 91.1045 28.94 90.5845 29.28C90.0845 29.62 89.4545 29.86 88.6945 30C87.9545 30.16 87.1245 30.24 86.2045 30.24C85.4445 30.24 84.8045 30.2 84.2845 30.12C83.7845 30.06 83.3845 29.98 83.0845 29.88L81.0145 30.33V25.41C81.7545 25.41 82.3745 25.54 82.8745 25.8C83.3745 26.06 83.7745 26.37 84.0745 26.73C84.3745 27.09 84.5945 27.47 84.7345 27.87C84.8745 28.25 84.9745 28.58 85.0345 28.86C85.1545 28.88 85.2645 28.89 85.3645 28.89H86.2345C86.4145 28.89 86.5745 28.88 86.7145 28.86C86.8745 28.84 87.0245 28.82 87.1645 28.8C87.2045 28.72 87.2445 28.61 87.2845 28.47C87.3245 28.35 87.3545 28.19 87.3745 27.99C87.4145 27.79 87.4345 27.55 87.4345 27.27C87.4345 26.69 87.2645 26.23 86.9245 25.89C86.6045 25.55 86.1945 25.27 85.6945 25.05C85.1945 24.81 84.6545 24.59 84.0745 24.39C83.5145 24.17 82.9845 23.91 82.4845 23.61C81.9845 23.29 81.5645 22.88 81.2245 22.38C80.9045 21.86 80.7445 21.17 80.7445 20.31C80.7445 19.71 80.8445 19.17 81.0445 18.69C81.2645 18.19 81.6045 17.77 82.0645 17.43C82.5445 17.09 83.1745 16.83 83.9545 16.65C84.7345 16.47 85.6945 16.38 86.8345 16.38ZM105.285 21.15C104.445 21.15 103.765 21.01 103.245 20.73C102.745 20.43 102.345 20.09 102.045 19.71C101.745 19.33 101.535 18.95 101.415 18.57C101.295 18.17 101.225 17.87 101.205 17.67H100.485C100.345 17.67 100.225 17.68 100.125 17.7C100.025 17.72 99.9355 17.74 99.8555 17.76C99.7755 17.8 99.6955 17.83 99.6155 17.85C99.5155 18.33 99.4255 18.85 99.3455 19.41C99.2655 19.89 99.1955 20.47 99.1355 21.15C99.0955 21.81 99.0755 22.53 99.0755 23.31C99.0755 24.09 99.0955 24.81 99.1355 25.47C99.1955 26.13 99.2655 26.7 99.3455 27.18C99.4255 27.74 99.5155 28.25 99.6155 28.71C99.6955 28.75 99.8055 28.78 99.9455 28.8C100.045 28.82 100.185 28.84 100.365 28.86C100.545 28.86 100.765 28.86 101.025 28.86C101.465 28.86 101.885 28.82 102.285 28.74C102.685 28.66 103.025 28.52 103.305 28.32C103.605 28.1 103.835 27.81 103.995 27.45C104.175 27.09 104.265 26.63 104.265 26.07H105.705C105.705 27.03 105.545 27.79 105.225 28.35C104.905 28.91 104.495 29.34 103.995 29.64C103.515 29.92 102.985 30.1 102.405 30.18C101.845 30.26 101.325 30.3 100.845 30.3C99.6255 30.3 98.5855 30.18 97.7255 29.94C96.8855 29.68 96.1955 29.28 95.6555 28.74C95.1355 28.18 94.7555 27.46 94.5155 26.58C94.2755 25.68 94.1555 24.59 94.1555 23.31C94.1555 22.03 94.2555 20.95 94.4555 20.07C94.6755 19.17 95.0455 18.45 95.5655 17.91C96.0855 17.35 96.7755 16.95 97.6355 16.71C98.5155 16.45 99.6255 16.32 100.965 16.32C101.445 16.32 101.935 16.33 102.435 16.35C102.955 16.37 103.425 16.4 103.845 16.44C104.345 16.48 104.825 16.51 105.285 16.53V21.15ZM107.215 11.55H108.985L113.725 10.68V18.03C113.965 17.71 114.285 17.43 114.685 17.19C115.025 16.97 115.475 16.77 116.035 16.59C116.615 16.41 117.335 16.32 118.195 16.32C118.655 16.32 119.115 16.36 119.575 16.44C120.055 16.52 120.485 16.67 120.865 16.89C121.265 17.09 121.585 17.37 121.825 17.73C122.065 18.09 122.185 18.56 122.185 19.14V28.47H123.955V30H117.445V18.18C117.405 18.18 117.345 18.17 117.265 18.15C117.105 18.11 116.885 18.09 116.605 18.09C116.185 18.09 115.805 18.18 115.465 18.36C115.145 18.52 114.865 18.71 114.625 18.93C114.385 19.15 114.185 19.38 114.025 19.62C113.885 19.84 113.785 20.01 113.725 20.13V28.47H115.495V30H107.215V28.47H108.985V13.05H107.215V11.55ZM125.148 16.77H126.918L131.658 16.05V28.47H133.428V30H125.148V28.47H126.918V18.27H125.148V16.77ZM126.918 12.09C126.918 11.25 127.098 10.63 127.458 10.23C127.818 9.81 128.428 9.6 129.288 9.6C130.188 9.6 130.808 9.81 131.148 10.23C131.488 10.63 131.658 11.25 131.658 12.09C131.658 12.95 131.468 13.58 131.088 13.98C130.728 14.36 130.128 14.55 129.288 14.55C128.428 14.55 127.818 14.36 127.458 13.98C127.098 13.58 126.918 12.95 126.918 12.09ZM145.223 15.33C144.403 15.33 143.733 15.19 143.213 14.91C142.693 14.63 142.283 14.3 141.983 13.92C141.683 13.54 141.473 13.16 141.353 12.78C141.233 12.4 141.163 12.1 141.143 11.88H140.123C140.083 12.02 140.053 12.2 140.033 12.42C139.973 12.82 139.943 13.42 139.943 14.22C139.943 14.92 140.123 15.48 140.483 15.9C140.843 16.32 141.343 16.53 141.983 16.53H144.323V18.06H141.143V28.47H142.913V30H134.633V28.47H136.403V15.36C136.403 14.68 136.503 14.04 136.703 13.44C136.903 12.84 137.203 12.32 137.603 11.88C138.023 11.44 138.543 11.1 139.163 10.86C139.803 10.6 140.543 10.47 141.383 10.47C141.883 10.47 142.463 10.5 143.123 10.56C143.803 10.6 144.503 10.65 145.223 10.71V15.33ZM143.749 16.53H150.019L153.469 25.26L156.589 18.06H154.189V16.53H160.429V18.06H158.329L152.329 32.1C152.149 32.54 151.949 32.93 151.729 33.27C151.529 33.63 151.289 33.93 151.009 34.17C150.749 34.43 150.429 34.62 150.049 34.74C149.689 34.88 149.249 34.95 148.729 34.95C148.169 34.95 147.719 34.85 147.379 34.65C147.059 34.47 146.809 34.24 146.629 33.96C146.449 33.7 146.329 33.42 146.269 33.12C146.229 32.84 146.209 32.59 146.209 32.37V31.47H147.799V32.4C147.799 32.64 147.859 32.87 147.979 33.09C148.119 33.31 148.369 33.42 148.729 33.42C149.269 33.42 149.679 33.23 149.959 32.85C150.259 32.47 150.519 32.02 150.739 31.5L151.069 30.72L145.249 18.06H143.749V16.53Z" fill="#55B3F3"/>
<rect opacity="0.5" x="11.8368" y="11.4286" width="16.7347" height="16.7347" fill="#55B3F3"/>
<rect x="15.5102" width="9.38776" height="9.38776" rx="4.69388" fill="#55B3F3"/>
<rect x="15.5103" y="30.6122" width="9.38776" height="9.38776" rx="4.69388" fill="#55B3F3"/>
<rect y="15.1021" width="9.38776" height="9.38776" rx="4.69388" fill="#55B3F3"/>
<rect x="30.6123" y="15.1021" width="9.38776" height="9.38776" rx="4.69388" fill="#55B3F3"/>
<line opacity="0.5" x1="12.0136" y1="11.2518" x2="28.7483" y2="27.9865" stroke="white" stroke-width="0.5"/>
<line opacity="0.5" x1="11.66" y1="27.9865" x2="28.3947" y2="11.2518" stroke="white" stroke-width="0.5"/>
</svg>
